<svg width="28" height="25" viewBox="0 0 28 25" fill="none" xmlns="http://www.w3.org/2000/svg">
<path d="M14.55 1.55C14.364 1.73575 14.2165 1.95632 14.1159 2.19912C14.0152 2.44191 13.9634 2.70217 13.9634 2.965C13.9634 3.22783 14.0152 3.48808 14.1159 3.73088C14.2165 3.97368 14.364 4.19425 14.55 4.38L20.55 10.38L21.71 10.98H2C1.46957 10.98 0.960859 11.1907 0.585787 11.5658C0.210714 11.9409 0 12.4496 0 12.98C0 13.5104 0.210714 14.0191 0.585787 14.3942C0.960859 14.7693 1.46957 14.98 2 14.98H21.72L20.66 15.48L14.56 21.58C14.1847 21.9553 13.9739 22.4643 13.9739 22.995C13.9739 23.5257 14.1847 24.0347 14.56 24.41C14.9353 24.7853 15.4443 24.9961 15.975 24.9961C16.5057 24.9961 17.0147 24.7853 17.39 24.41L27.39 14.41C27.576 14.2243 27.7235 14.0037 27.8241 13.7609C27.9248 13.5181 27.9766 13.2578 27.9766 12.995C27.9766 12.7322 27.9248 12.4719 27.8241 12.2291C27.7235 11.9863 27.576 11.7657 27.39 11.58L17.39 1.58C17.2061 1.39056 16.9864 1.23943 16.7438 1.13531C16.5011 1.03119 16.2403 0.976144 15.9762 0.973355C15.7122 0.970566 15.4503 1.02009 15.2055 1.11906C14.9607 1.21803 14.7379 1.36449 14.55 1.55Z" fill="#434343"/>
</svg>
