<svg width="16" height="16" viewBox="0 0 16 16" fill="none" xmlns="http://www.w3.org/2000/svg">
<g clip-path="url(#clip0)">
<path d="M2.66627 15.7333H13.3329C13.6266 15.7311 13.8642 15.4936 13.8663 15.2C13.8655 14.9058 13.6272 14.6676 13.3329 14.6666V3.19998H2.66627V14.6666C2.37265 14.6689 2.13515 14.9064 2.13293 15.2C2.13385 15.4941 2.37213 15.7324 2.66627 15.7333ZM4.53293 13.0666V6.93332C4.53385 6.63917 4.77213 6.40089 5.06627 6.39998C5.35989 6.4022 5.59752 6.6397 5.5996 6.93332V13.0666C5.5996 13.3612 5.3608 13.6 5.06627 13.6C4.77174 13.6 4.53293 13.3612 4.53293 13.0666ZM7.46627 13.0666V6.93332C7.46718 6.63917 7.70546 6.40089 7.9996 6.39998C8.29322 6.4022 8.53085 6.6397 8.53293 6.93332V13.0666C8.53293 13.3612 8.29413 13.6 7.9996 13.6C7.70507 13.6 7.46627 13.3612 7.46627 13.0666ZM10.3996 13.0666V6.93332C10.4005 6.63917 10.6388 6.40089 10.9329 6.39998C11.2266 6.4022 11.4642 6.6397 11.4663 6.93332V13.0666C11.4663 13.3612 11.2275 13.6 10.9329 13.6C10.6384 13.6 10.3996 13.3612 10.3996 13.0666Z" fill="#9AEEBB"/>
<path d="M11.1677 1.06665H4.83164C4.18568 1.06678 3.62279 1.50662 3.46628 2.13332H12.5329C12.3762 1.50688 11.8134 1.0673 11.1677 1.06665Z" fill="#9AEEBB"/>
<path d="M13.5996 14.4491V3.41758C13.9667 3.28828 14.187 2.91315 14.1211 2.52956C14.0551 2.14596 13.7221 1.86589 13.3329 1.86667H12.7228C12.4741 1.22396 11.856 0.80026 11.1668 0.8H8.7996C8.7996 0.358203 8.44153 0 7.9996 0C7.5578 0 7.1996 0.358203 7.1996 0.8H4.83241C4.14335 0.80026 3.52538 1.22396 3.27668 1.86667H2.66627C2.27707 1.86589 1.94413 2.14596 1.87825 2.52956C1.81223 2.91315 2.03254 3.28828 2.3996 3.41758V14.4491C2.03254 14.5784 1.81223 14.9535 1.87825 15.3371C1.94413 15.7207 2.27707 16.0008 2.66627 16H13.3329C13.7221 16.0008 14.0551 15.7207 14.1211 15.3371C14.187 14.9535 13.9667 14.5784 13.5996 14.4491ZM13.0663 5.06667H2.93293V3.46667H13.0663V5.06667ZM2.93293 5.6H13.0663V14.4H2.93293V5.6ZM7.9996 0.533333C8.14687 0.533333 8.26627 0.652734 8.26627 0.8H7.73293C7.73293 0.652734 7.85233 0.533333 7.9996 0.533333ZM3.86627 1.86667C4.07512 1.53437 4.44023 1.33281 4.83267 1.33333H11.1668C11.5592 1.33294 11.9242 1.53451 12.1329 1.86667H3.86627ZM2.66627 2.4H13.3329C13.4802 2.4 13.5996 2.5194 13.5996 2.66667C13.5996 2.81393 13.4802 2.93333 13.3329 2.93333H2.66627C2.519 2.93333 2.3996 2.81393 2.3996 2.66667C2.3996 2.5194 2.519 2.4 2.66627 2.4ZM13.3329 15.4667H2.66627C2.519 15.4667 2.3996 15.3473 2.3996 15.2C2.3996 15.0527 2.519 14.9333 2.66627 14.9333H13.3329C13.4802 14.9333 13.5996 15.0527 13.5996 15.2C13.5996 15.3473 13.4802 15.4667 13.3329 15.4667Z" fill="#4DD784"/>
<path d="M7.99958 6.13333C7.55779 6.13333 7.19958 6.49153 7.19958 6.93333V13.0667C7.19958 13.5085 7.55779 13.8667 7.99958 13.8667C8.44151 13.8667 8.79958 13.5085 8.79958 13.0667V6.93333C8.79958 6.49153 8.44151 6.13333 7.99958 6.13333ZM8.26625 13.0667C8.26625 13.2139 8.14685 13.3333 7.99958 13.3333C7.85232 13.3333 7.73292 13.2139 7.73292 13.0667V6.93333C7.73292 6.78607 7.85232 6.66666 7.99958 6.66666C8.14685 6.66666 8.26625 6.78607 8.26625 6.93333V13.0667Z" fill="#4DD784"/>
<path d="M10.9329 6.13333C10.4911 6.13333 10.1329 6.49153 10.1329 6.93333V13.0667C10.1329 13.5085 10.4911 13.8667 10.9329 13.8667C11.3749 13.8667 11.7329 13.5085 11.7329 13.0667V6.93333C11.7329 6.49153 11.3749 6.13333 10.9329 6.13333ZM11.1996 13.0667C11.1996 13.2139 11.0802 13.3333 10.9329 13.3333C10.7857 13.3333 10.6663 13.2139 10.6663 13.0667V6.93333C10.6663 6.78607 10.7857 6.66666 10.9329 6.66666C11.0802 6.66666 11.1996 6.78607 11.1996 6.93333V13.0667Z" fill="#4DD784"/>
<path d="M5.06627 6.13333C4.62447 6.13333 4.26627 6.49153 4.26627 6.93333V13.0667C4.26627 13.5085 4.62447 13.8667 5.06627 13.8667C5.5082 13.8667 5.86627 13.5085 5.86627 13.0667V6.93333C5.86627 6.49153 5.5082 6.13333 5.06627 6.13333ZM5.33294 13.0667C5.33294 13.2139 5.21353 13.3333 5.06627 13.3333C4.919 13.3333 4.7996 13.2139 4.7996 13.0667V6.93333C4.7996 6.78607 4.919 6.66666 5.06627 6.66666C5.21353 6.66666 5.33294 6.78607 5.33294 6.93333V13.0667Z" fill="#4DD784"/>
</g>
<defs>
<clipPath id="clip0">
<rect width="16" height="16" fill="white"/>
</clipPath>
</defs>
</svg>
